<?xml version="1.0" encoding="UTF-8"?>
<svg id="Layer_1" xmlns="http://www.w3.org/2000/svg" viewBox="0 0 45.84 18.93">
  <defs>
    <style>
      .cls-1 {
        fill: #fff;
      }

      .cls-2 {
        fill: #232323;
      }
    </style>
  </defs>
  <g>
    <path class="cls-1" d="M.14,6.52h4.68l3.74,4.8,3.75-4.8h4.68v9.6h-3.74v-5.12l-3.75,5.12h-1.87l-3.75-5.12v5.12H.14V6.52Z"/>
    <path class="cls-1" d="M19.17,6.53h11.23v2.46h-7.49v1.23h7.49v2.22h-7.49v1.23h7.49v2.46h-11.23V6.53Z"/>
    <path class="cls-1" d="M41.03,6.53h4.68l-5.04,4.8,5.04,4.8h-4.68l-2.69-2.81-2.69,2.81h-4.68l5.04-4.8-5.04-4.8h4.68l2.69,2.8,2.69-2.8Z"/>
  </g>
  <g>
    <rect class="cls-1" x=".11" width="45.39" height="5.4"/>
    <polygon class="cls-2" points="12.97 0 9.01 5.4 2.64 5.4 6.61 0 12.97 0"/>
    <polygon class="cls-2" points="23.55 0 19.59 5.4 13.22 5.4 17.19 0 23.55 0"/>
    <polygon class="cls-2" points="34.13 0 30.17 5.4 23.81 5.4 27.77 0 34.13 0"/>
    <polygon class="cls-2" points="44.71 0 40.75 5.4 34.39 5.4 38.35 0 44.71 0"/>
  </g>
</svg>